<svg version="1.0" xmlns="http://www.w3.org/2000/svg" width="350px" height="200px" viewBox="0 0 12790 7200" preserveAspectRatio="xMidYMid meet">
<g fill="#337ab7" class="shadow" stroke="none" >
 <path d="M2332 6518 c-7 -7 -12 -39 -12 -74 0 -116 69 -286 327 -807 79 -158 143 -289 143 -291 0 -2 20 -46 44 -97 76 -164 126 -315 126 -380 0 -28 -25 -88 -95 -226 -105 -209 -168 -327 -208 -390 -33 -52 -36 -113 -7 -160 41 -68 103 -50 214 62 96 95 188 231 231 339 18 45 33 39 54 -21 74 -211 188 -391 271 -428 38 -17 43 -17 75 -2 45 21 95 91 95 131 0 72 -49 196 -185 468 -115 230 -114 224 -69 326 13 29 48 90 77 135 82 125 107 179 107 235 0 38 -5 53 -24 71 -24 23 -25 23 -86 8 -34 -9 -82 -28 -106 -42 -50 -29 -117 -108 -135 -160 -7 -19 -18 -35 -25 -35 -7 0 -33 37 -60 83 -26 45 -111 185 -188 312 -78 126 -145 237 -151 247 -167 287 -264 473 -319 608 -37 91 -65 117 -94 88z"/>
 <path d="M3044 5867 c-8 -22 -1 -31 51 -66 26 -17 100 -46 182 -71 196 -59 355 -115 432 -153 74 -36 64 -16 101 -207 27 -141 37 -197 55 -310 9 -52 23 -131 31 -175 20 -109 42 -253 54 -355 10 -81 17 -129 40 -285 6 -38 15 -106 20 -150 4 -44 16 -129 25 -190 9 -60 20 -141 25 -180 13 -102 58 -401 69 -465 5 -30 17 -102 26 -160 8 -58 27 -173 40 -256 28 -172 30 -208 13 -221 -7 -5 -44 -22 -83 -37 -38 -15 -79 -32 -90 -37 -60 -26 -311 -125 -450 -177 -315 -120 -440 -159 -690 -217 -212 -50 -240 -58 -282 -87 -60 -41 -83 -77 -83 -133 0 -43 2 -47 35 -61 45 -18 209 -19 295 0 242 53 460 132 1090 391 30 13 99 41 154 64 75 30 103 38 117 31 18 -10 21 -19 40 -145 25 -169 71 -255 135 -255 13 0 47 22 80 52 l57 53 -7 215 c-6 199 -5 216 11 226 10 6 43 25 73 41 30 17 134 77 230 133 96 57 200 117 230 134 229 132 635 399 815 534 264 199 473 399 569 544 90 136 108 191 109 323 1 108 1 111 -37 190 -32 66 -57 98 -140 180 -242 241 -631 446 -1408 744 -222 85 -314 119 -633 233 -382 136 -412 147 -468 174 -72 34 -105 39 -128 18 -17 -15 -25 -16 -77 -4 -188 43 -311 71 -342 80 -73 20 -167 39 -222 46 -47 5 -59 3 -64 -9z m1092 -406 c857 -298 1449 -594 1733 -866 130 -124 194 -223 226 -350 38 -151 -7 -313 -135 -485 -162 -217 -488 -469 -960 -742 -246 -142 -429 -238 -445 -232 -29 11 -84 128 -120 254 -29 102 -68 247 -75 280 -5 19 -22 96 -39 170 -17 74 -56 259 -86 410 -56 280 -63 317 -90 475 -9 50 -20 108 -25 130 -5 22 -12 60 -15 85 -3 25 -10 65 -15 90 -9 43 -35 190 -67 385 -8 50 -18 113 -23 140 -4 28 -15 93 -24 145 -9 52 -19 112 -22 133 -4 22 -3 37 3 37 6 0 86 -26 179 -59z"/>
 <path d="M1798 5687 c-31 -29 -68 -147 -68 -217 0 -160 -90 -752 -140 -925 -5 -16 -16 -59 -25 -95 -81 -336 -211 -698 -416 -1160 -63 -143 -351 -711 -448 -885 -16 -27 -44 -79 -63 -115 -20 -36 -48 -87 -64 -115 -54 -97 -105 -190 -122 -224 -16 -32 -16 -33 7 -52 16 -13 39 -19 72 -19 l48 0 80 113 c44 61 125 184 179 272 89 144 134 221 231 395 35 62 225 445 265 532 68 151 149 345 191 458 25 69 51 136 57 150 13 31 111 330 127 388 6 23 16 42 21 42 18 0 27 -37 39 -160 6 -69 16 -163 22 -210 5 -47 14 -143 19 -215 10 -130 15 -182 45 -495 35 -372 74 -621 165 -1050 17 -80 35 -165 40 -190 17 -80 83 -337 116 -450 26 -87 103 -319 123 -369 11 -25 29 -71 41 -101 41 -101 131 -274 188 -360 70 -106 229 -267 295 -299 76 -37 79 -23 23 126 -85 226 -105 278 -271 688 -75 187 -171 463 -215 620 -12 44 -28 100 -36 125 -29 96 -76 287 -94 385 -5 28 -19 95 -30 150 -11 55 -27 153 -35 218 -9 64 -22 143 -30 175 -14 52 -29 162 -55 402 -5 47 -16 146 -25 220 -8 74 -20 207 -25 295 -5 88 -16 266 -25 395 -9 129 -20 314 -26 410 -5 96 -13 222 -19 280 -5 67 -5 156 1 245 30 420 32 601 6 633 -6 7 -35 12 -77 12 -56 0 -71 -4 -92 -23z"/>
 <path d="M9543 5530 c-65 -13 -111 -39 -162 -90 -43 -43 -49 -55 -65 -131 -10 -46 -21 -112 -24 -146 -2 -35 -7 -63 -11 -63 -3 1 -37 41 -75 90 -123 161 -215 240 -277 240 -38 0 -85 -33 -121 -86 -26 -39 -27 -40 -12 -94 55 -201 104 -420 104 -466 0 -11 16 -35 35 -54 28 -28 44 -34 89 -38 44 -4 62 0 91 18 52 32 86 22 169 -50 79 -68 110 -78 194 -61 110 22 161 83 170 201 5 73 -19 214 -63 365 -10 33 -20 75 -22 93 l-5 33 48 -20 c71 -27 250 -117 394 -197 227 -126 200 -118 405 -119 103 0 212 6 255 13 41 7 127 22 190 34 66 11 178 22 262 25 150 5 190 0 335 -43 415 -120 787 -204 907 -204 51 0 66 13 66 60 0 87 -185 198 -505 304 -121 40 -167 54 -290 85 -264 67 -294 71 -514 71 -190 0 -219 -3 -410 -36 -170 -30 -223 -35 -302 -32 -106 5 -77 -7 -329 135 -244 136 -408 187 -527 163z"/>
 <path d="M7803 5510 c-18 -10 -45 -38 -60 -61 -40 -60 -37 -138 10 -279 20 -58 31 -107 26 -108 -16 -6 -142 90 -219 167 -42 42 -87 98 -100 126 -30 59 -57 75 -130 75 -94 0 -148 -47 -153 -136 -5 -81 -11 -82 -88 -9 -74 70 -93 76 -160 54 -125 -42 -149 -146 -73 -316 15 -36 24 -74 24 -108 0 -121 65 -184 189 -185 20 0 54 -12 81 -29 69 -43 137 -63 182 -56 60 11 152 76 194 140 20 30 41 55 46 55 6 0 46 -20 89 -45 176 -98 276 -110 398 -44 74 39 83 52 105 141 15 61 15 70 1 110 -23 62 -23 73 3 76 17 3 46 -18 118 -85 144 -134 250 -219 310 -247 101 -48 212 -28 249 44 28 54 14 112 -43 183 -21 26 -32 53 -37 90 -20 166 -49 260 -96 309 -32 34 -41 38 -86 38 -46 0 -54 -3 -86 -39 -20 -22 -43 -54 -52 -70 -8 -17 -18 -31 -20 -31 -22 0 -113 48 -230 120 -218 135 -318 166 -392 120z"/>
 <path d="M6171 5478 c-24 -12 -69 -45 -101 -75 -95 -88 -129 -200 -95 -318 50 -171 169 -307 356 -402 73 -37 76 -38 189 -38 109 0 118 2 165 29 64 37 140 117 156 163 15 46 6 174 -16 228 -70 174 -221 310 -431 388 -54 20 -165 49 -177 47 -1 -1 -22 -11 -46 -22z m271 -240 c60 -80 107 -300 76 -357 -27 -50 -41 -49 -115 11 -123 102 -183 180 -183 238 0 31 33 104 51 116 48 30 146 25 171 -8z"/>
 <path d="M2182 5399 c-72 -41 -129 -100 -159 -166 -23 -49 -25 -65 -21 -143 4 -77 9 -98 41 -163 71 -144 223 -277 379 -332 146 -52 285 -21 388 86 62 65 73 99 68 208 -3 71 -10 98 -37 154 -52 108 -193 244 -311 299 -134 62 -211 88 -262 88 -18 0 -56 -14 -86 -31z m275 -207 c33 -21 113 -239 113 -307 0 -36 -38 -105 -57 -105 -27 0 -178 127 -218 184 -47 66 -52 101 -25 165 18 40 29 53 54 60 39 11 117 13 133 3z"/>
 <path d="M8948 4453 c-45 -48 -88 -125 -109 -195 -21 -67 -21 -68 -2 -100 46 -80 135 -80 224 0 127 114 116 235 -28 298 -30 13 -55 24 -56 24 -2 0 -15 -12 -29 -27z"/>
 <path d="M10445 4293 c-136 -71 -178 -253 -80 -343 40 -38 122 -35 195 6 76 43 94 70 98 152 4 64 2 70 -30 112 -32 43 -106 90 -138 89 -8 0 -28 -7 -45 -16z"/>
 </g>
<g id="layer2" fill="#FFFFFF" stroke="none">
 <path d="M0 3600 l0 -3600 6395 0 6395 0 0 3600 0 3600 -6395 0 -6395 0 0 -3600z m2415 2810 c99 -228 201 -412 461 -835 72 -115 156 -256 188 -313 70 -122 85 -128 126 -46 54 109 106 152 219 180 78 20 91 11 91 -58 0 -56 -24 -110 -107 -235 -29 -45 -64 -106 -77 -135 -45 -102 -46 -96 69 -326 109 -219 136 -279 166 -377 25 -80 24 -113 -5 -156 -33 -48 -75 -66 -116 -49 -79 33 -175 184 -260 410 -7 19 -22 45 -33 57 -19 21 -22 22 -38 7 -10 -9 -24 -33 -30 -52 -26 -80 -134 -238 -220 -322 -94 -92 -161 -112 -187 -55 -20 44 -14 102 15 148 40 63 103 181 208 390 70 138 95 198 95 226 0 65 -50 216 -126 380 -24 51 -44 95 -44 97 0 2 -64 133 -143 291 -260 525 -327 691 -327 810 0 94 23 83 75 -37z m815 -576 c36 -8 81 -19 100 -24 31 -9 154 -37 342 -80 52 -12 60 -11 77 4 23 21 56 16 128 -18 56 -27 86 -38 468 -174 319 -114 411 -148 633 -233 766 -293 1167 -504 1398 -734 73 -72 98 -106 129 -170 39 -79 39 -82 38 -190 0 -94 -4 -119 -26 -173 -96 -235 -383 -512 -874 -846 -137 -92 -459 -295 -573 -362 -30 -17 -144 -84 -254 -148 -109 -64 -201 -116 -203 -116 -2 0 -29 -16 -59 -35 l-54 -35 6 -218 7 -218 -48 -42 c-66 -58 -102 -56 -134 7 -22 43 -47 144 -57 226 -9 77 -18 100 -47 119 -25 17 -4 24 -277 -89 -788 -325 -1036 -405 -1252 -405 -129 0 -148 8 -148 60 0 49 19 80 68 112 37 25 70 35 277 83 250 58 375 97 690 217 141 53 394 153 450 178 11 4 58 24 105 43 68 27 87 39 95 61 8 24 -18 225 -56 431 -5 28 -13 82 -19 120 -5 39 -23 160 -40 270 -17 110 -35 232 -40 270 -5 39 -16 120 -25 180 -9 61 -21 146 -25 190 -5 44 -14 112 -20 150 -23 156 -30 204 -40 285 -12 102 -34 246 -54 355 -8 44 -22 123 -31 175 -21 128 -59 336 -82 450 -3 14 -13 34 -22 44 -32 38 -220 111 -503 196 -128 38 -218 81 -218 103 0 10 76 2 170 -19z m-1267 -241 c6 -93 1 -203 -22 -528 -6 -89 -6 -178 -1 -245 6 -58 14 -184 19 -280 6 -96 17 -281 26 -410 9 -129 20 -307 25 -395 5 -88 17 -221 25 -295 9 -74 20 -173 25 -220 26 -240 41 -350 55 -402 8 -32 21 -111 30 -175 8 -65 24 -163 35 -218 11 -55 25 -122 30 -150 18 -98 65 -289 94 -385 8 -25 24 -81 36 -125 44 -157 140 -433 215 -620 113 -278 170 -422 198 -495 79 -205 118 -313 115 -316 -2 -2 -24 7 -48 19 -62 30 -205 175 -272 277 -57 85 -147 259 -187 358 -12 28 -30 74 -40 100 -21 52 -98 282 -125 372 -33 113 -99 370 -116 450 -5 25 -23 110 -40 190 -91 429 -130 678 -165 1050 -30 313 -35 365 -45 495 -5 72 -14 168 -19 215 -6 47 -16 141 -22 210 -13 140 -28 183 -62 178 -16 -2 -25 -15 -36 -53 -20 -71 -117 -365 -129 -395 -6 -14 -32 -81 -57 -150 -42 -113 -123 -307 -191 -458 -40 -87 -230 -470 -265 -532 -109 -196 -153 -271 -235 -403 -51 -81 -126 -195 -166 -252 l-73 -105 -45 0 c-25 0 -52 4 -60 10 -17 11 -13 20 124 265 16 28 44 79 64 115 19 36 47 88 63 115 97 174 385 742 448 885 205 462 335 824 416 1160 9 36 20 79 25 95 50 174 140 763 140 927 0 60 32 173 57 200 12 14 31 18 83 18 l67 0 6 -97z m7782 -100 c74 -18 188 -70 325 -146 252 -142 223 -130 329 -135 79 -3 132 2 302 32 191 33 220 36 410 36 168 0 222 -4 299 -20 114 -25 316 -75 385 -97 310 -96 483 -175 578 -261 20 -20 27 -35 27 -64 l0 -38 -44 0 c-122 0 -491 83 -909 204 -145 43 -185 48 -335 43 -84 -3 -196 -14 -262 -25 -63 -12 -149 -27 -190 -34 -43 -7 -152 -13 -255 -13 -205 1 -178 -7 -405 119 -142 79 -323 169 -392 197 -40 16 -48 16 -58 4 -14 -16 -11 -41 15 -130 44 -154 68 -292 63 -367 -8 -110 -50 -159 -150 -179 -84 -17 -115 -7 -194 61 -83 72 -117 82 -169 50 -70 -43 -195 -9 -195 54 0 46 -49 265 -104 466 -14 54 -14 56 11 92 85 125 173 87 366 -159 44 -57 83 -103 87 -103 17 0 28 28 33 85 2 33 13 97 23 143 15 72 23 89 56 122 86 86 190 104 353 63z m-1757 -10 c37 -14 130 -65 207 -113 149 -92 215 -123 240 -114 9 4 22 21 29 38 7 17 25 46 40 64 25 28 34 32 78 32 42 0 54 -4 77 -29 37 -39 67 -145 86 -298 5 -37 16 -64 37 -90 101 -125 66 -233 -75 -233 -100 0 -181 51 -387 243 -95 89 -131 117 -152 117 -40 0 -53 -31 -32 -72 22 -41 21 -97 0 -169 -16 -54 -20 -58 -78 -89 -46 -25 -78 -34 -130 -38 -81 -6 -143 14 -268 84 -45 25 -87 43 -95 40 -7 -2 -31 -31 -53 -63 -43 -63 -120 -117 -182 -128 -42 -7 -111 14 -179 55 -32 19 -66 29 -110 34 -36 3 -75 13 -88 21 -32 21 -53 77 -53 140 0 34 -9 72 -24 108 -81 183 -47 288 98 304 42 5 45 3 113 -61 70 -65 70 -66 88 -46 12 13 20 40 22 71 1 27 7 59 13 69 16 30 64 50 117 50 77 0 92 -8 116 -58 28 -61 131 -169 236 -248 132 -98 146 -90 97 58 -48 147 -54 205 -26 264 43 87 118 105 238 57z m-1716 -14 c142 -28 289 -104 394 -202 115 -108 159 -201 159 -343 0 -84 -2 -94 -30 -134 -38 -55 -132 -117 -192 -126 -25 -4 -81 -4 -124 -1 -64 4 -92 12 -151 42 -173 87 -285 215 -333 380 -33 113 0 232 86 309 37 33 110 79 136 86 1 0 26 -5 55 -11z m-3919 -75 c49 -15 93 -33 177 -72 61 -29 157 -101 209 -158 77 -84 114 -169 119 -275 5 -106 -6 -142 -60 -198 -93 -97 -235 -126 -376 -76 -154 54 -290 173 -359 313 -31 62 -37 86 -41 158 -4 65 0 95 13 131 34 90 159 193 233 193 18 0 57 -7 85 -16z m6680 -958 c64 -28 97 -69 97 -120 0 -145 -218 -266 -276 -154 -14 26 -13 35 1 86 9 31 25 72 35 92 20 39 77 120 85 120 2 0 29 -11 58 -24z m1512 -166 c84 -38 120 -141 82 -233 -27 -63 -176 -117 -237 -85 -60 32 -77 136 -36 223 25 53 43 73 91 98 39 21 48 21 100 -3z"/>
 <path d="M3934 5525 c-5 -13 10 -120 36 -260 5 -27 17 -95 25 -150 8 -55 20 -120 25 -145 5 -25 16 -90 25 -145 8 -55 20 -120 25 -145 5 -25 12 -65 15 -90 3 -25 10 -63 15 -85 5 -22 16 -80 25 -130 27 -158 34 -195 90 -475 30 -151 69 -336 86 -410 17 -74 34 -151 39 -170 7 -33 46 -178 75 -280 38 -134 90 -240 130 -266 24 -16 19 -18 300 136 549 301 953 603 1135 850 128 173 173 335 135 485 -31 122 -84 208 -208 334 -248 253 -691 494 -1427 776 -209 80 -507 185 -527 185 -7 0 -16 -7 -19 -15z"/>
 <path d="M6330 5284 c-61 -11 -83 -27 -106 -78 -13 -28 -24 -62 -24 -76 0 -31 33 -94 73 -140 38 -43 188 -170 203 -170 5 0 23 14 40 31 27 29 29 35 29 113 -1 69 -6 96 -34 168 -52 134 -92 168 -181 152z"/>
 <path d="M2320 5207 c-28 -9 -41 -24 -63 -67 -35 -69 -31 -104 20 -178 40 -59 206 -202 234 -202 23 0 56 43 70 91 10 31 8 52 -9 123 -23 94 -72 202 -103 229 -25 20 -96 22 -149 4z"/>
 </g>
</svg>