<?xml version="1.0" encoding="UTF-8" standalone="no"?>
<!-- Created with Inkscape (http://www.inkscape.org/) -->

<svg
   xmlns:dc="http://purl.org/dc/elements/1.1/"
   xmlns:cc="http://creativecommons.org/ns#"
   xmlns:rdf="http://www.w3.org/1999/02/22-rdf-syntax-ns#"
   xmlns:svg="http://www.w3.org/2000/svg"
   xmlns="http://www.w3.org/2000/svg"
   xmlns:sodipodi="http://sodipodi.sourceforge.net/DTD/sodipodi-0.dtd"
   xmlns:inkscape="http://www.inkscape.org/namespaces/inkscape"
   width="80mm"
   height="80mm"
   viewBox="0 0 80 80"
   version="1.1"
   id="svg8"
   inkscape:version="0.92.0 r15299"
   sodipodi:docname="logo.svg">
  <defs
     id="defs2" />
  <sodipodi:namedview
     id="base"
     pagecolor="#ffffff"
     bordercolor="#666666"
     borderopacity="1.0"
     inkscape:pageopacity="0.0"
     inkscape:pageshadow="2"
     inkscape:zoom="0.98994949"
     inkscape:cx="328.92665"
     inkscape:cy="190.57619"
     inkscape:document-units="mm"
     inkscape:current-layer="layer1"
     showgrid="false"
     showguides="true"
     inkscape:guide-bbox="true"
     inkscape:window-width="1920"
     inkscape:window-height="1137"
     inkscape:window-x="-8"
     inkscape:window-y="-8"
     inkscape:window-maximized="1">
    <sodipodi:guide
       position="93.544333,195.03994"
       orientation="1,0"
       id="guide4505"
       inkscape:locked="false" />
  </sodipodi:namedview>
  <metadata
     id="metadata5">
    <rdf:RDF>
      <cc:Work
         rdf:about="">
        <dc:format>image/svg+xml</dc:format>
        <dc:type
           rdf:resource="http://purl.org/dc/dcmitype/StillImage" />
        <dc:title />
      </cc:Work>
    </rdf:RDF>
  </metadata>
  <g
     inkscape:label="Layer 1"
     inkscape:groupmode="layer"
     id="layer1"
     transform="translate(0,-217)">
    <g
       aria-label="?"
       style="font-style:normal;font-weight:normal;font-size:16.09021568px;line-height:10.05638504px;font-family:sans-serif;letter-spacing:0px;word-spacing:0px;fill:#000000;fill-opacity:1;stroke:none;stroke-width:0.40225539px;stroke-linecap:butt;stroke-linejoin:miter;stroke-opacity:1"
       id="text4487"
       inkscape:export-filename="C:\Users\ender\text4501.png"
       inkscape:export-xdpi="299.98801"
       inkscape:export-ydpi="299.98801">
      <path
         d="M 64.592716,242.23575 60.2559,242.12262 q 0,2.18726 -0.641095,4.14826 -0.603383,1.92328 -1.923283,3.65801 l 4.412239,2.60209 -2.413533,3.20547 -3.733433,-3.58259 q -0.905074,0.9805 -2.413532,1.92329 -1.470747,0.94278 -3.469453,1.84786 l 3.280896,4.60079 -3.846568,2.22498 -2.451244,-5.58129 q -0.79194,0.30169 -1.546169,0.49025 -0.716517,0.18855 -1.395324,0.26398 l -1.206766,13.68925 -5.619005,1.24448 -3.39403,-15.87652 q 3.65801,-0.26398 6.674926,-1.3199 3.054627,-1.05592 5.505871,-2.75294 2.903781,-2.03642 4.336816,-4.75164 1.470746,-2.71522 1.470746,-6.10925 0,-2.41354 -0.641094,-4.37453 -0.603383,-1.961 -1.923284,-3.46945 -1.357612,-1.54617 -3.243184,-2.3004 -1.885573,-0.79194 -4.299105,-0.79194 -1.546169,0 -2.903781,0.41482 -1.357612,0.37712 -2.526667,1.09364 -1.357612,0.82965 -2.036418,1.9987 -0.678806,1.16906 -0.678806,2.6398 0,2.14956 1.05592,3.24319 1.055921,1.09363 3.167762,1.09363 1.244477,0 2.338109,-0.56567 1.093632,-0.56567 1.960995,-1.77244 l 1.847861,1.47075 q -0.716517,1.13134 -1.697015,2.07413 -0.942786,0.90507 -2.149552,1.54616 l 1.734726,3.58259 -3.846567,1.35761 -1.093632,-3.77114 q -0.377115,0.15085 -0.867363,0.18856 -0.490249,0.0377 -1.093632,0.0377 -2.07413,0 -3.620299,-0.67881 -1.508458,-0.71652 -2.488955,-2.11184 l -4.035125,2.18727 -1.05592,-3.84657 4.035124,-1.28219 q -0.07542,-0.30169 -0.150846,-0.6411 -0.03771,-0.37711 -0.03771,-0.79194 0,-1.73472 0.754229,-3.39403 0.754229,-1.6593 2.224975,-3.13005 l -3.356319,-2.86607 2.677513,-3.50716 3.318607,4.22368 q 1.81015,-1.05592 3.884279,-1.73473 2.07413,-0.6788 4.374528,-1.0182 l -0.301692,-4.33682 3.544876,-0.41483 v 4.63851 q 2.300398,0.11314 4.299105,0.67881 1.998706,0.52796 3.695721,1.54617 l 3.016916,-3.84657 2.677513,2.37582 -3.39403,3.01692 q 1.960995,1.81015 3.205472,3.88427 1.244478,2.03642 1.734727,4.37453 l 4.299105,-1.24448 z m -17.724379,41.85971 q 0,2.86607 -2.036418,4.97791 -1.998707,2.07413 -4.864776,2.07413 -2.828359,0 -4.864777,-2.07413 -1.998707,-2.11184 -1.998707,-4.97791 0,-2.82836 1.998707,-4.86478 2.036418,-2.03642 4.864777,-2.03642 2.828358,0 4.864776,2.03642 2.036418,2.03642 2.036418,4.86478 z m -4.412239,0.9805 q 0,-1.35762 -0.905075,-2.41354 -0.867363,-1.05592 -2.149552,-1.05592 -1.546169,0 -2.33811,0.86737 -0.754229,0.86736 -0.754229,2.60209 0,1.3199 0.867364,2.37582 0.905074,1.05592 2.224975,1.05592 1.282189,0 2.149552,-1.05592 0.905075,-1.09364 0.905075,-2.37582 z"
         style="font-style:normal;font-variant:normal;font-weight:normal;font-stretch:normal;font-size:77.23303986px;font-family:Jokerman;-inkscape-font-specification:Jokerman;stroke-width:0.40225539px"
         id="path4602" />
    </g>
    <text
       xml:space="preserve"
       style="font-style:normal;font-weight:normal;font-size:10.58333302px;line-height:6.61458302px;font-family:sans-serif;letter-spacing:0px;word-spacing:0px;fill:#000000;fill-opacity:1;stroke:none;stroke-width:0.26458332px;stroke-linecap:butt;stroke-linejoin:miter;stroke-opacity:1"
       x="82.776787"
       y="83.443451"
       id="text4494"><tspan
         sodipodi:role="line"
         id="tspan4492"
         x="82.776787"
         y="89.499931"
         style="stroke-width:0.26458332px" /></text>
    <path
       style="fill:#247ba0;fill-opacity:1;stroke:#000000;stroke-width:2.07297826;stroke-linecap:round;stroke-linejoin:miter;stroke-miterlimit:4;stroke-dasharray:none;stroke-opacity:1"
       d="m 17.293324,278.78727 h 7.373562 c 0.9862,0 1.78014,0.79394 1.78014,1.78014 v 7.37356 c 0,0.9862 -0.79394,1.78015 -1.78014,1.78015 h -7.373562 c -0.9862,0 -1.780145,-0.79395 -1.780145,-1.78015 v -7.37356 c 0,-0.9862 0.793945,-1.78014 1.780145,-1.78014 z"
       id="rect4496"
       inkscape:connector-curvature="0"
       inkscape:export-filename="C:\Users\ender\text4501.png"
       inkscape:export-xdpi="299.98801"
       inkscape:export-ydpi="299.98801" />
    <path
       id="path4503"
       d="m 17.226506,264.48835 h 7.37356 c 0.9862,0 1.78014,0.79394 1.78014,1.78014 v 7.37356 c 0,0.9862 -0.79394,1.78015 -1.78014,1.78015 h -7.37356 c -0.9862,0 -1.780145,-0.79395 -1.780145,-1.78015 v -7.37356 c 0,-0.9862 0.793945,-1.78014 1.780145,-1.78014 z"
       style="fill:#ffe066;fill-opacity:1;stroke:#000000;stroke-width:2.07297826;stroke-linecap:round;stroke-linejoin:miter;stroke-miterlimit:4;stroke-dasharray:none;stroke-opacity:1"
       inkscape:connector-curvature="0"
       inkscape:export-filename="C:\Users\ender\text4501.png"
       inkscape:export-xdpi="299.98801"
       inkscape:export-ydpi="299.98801" />
    <path
       inkscape:connector-curvature="0"
       style="fill:#f25f5c;fill-opacity:1;stroke:#000000;stroke-width:2.07297826;stroke-linecap:round;stroke-linejoin:miter;stroke-miterlimit:4;stroke-dasharray:none;stroke-opacity:1"
       d="m 17.092871,250.18943 h 7.373565 c 0.9862,0 1.78014,0.79394 1.78014,1.78014 v 7.37356 c 0,0.9862 -0.79394,1.78015 -1.78014,1.78015 h -7.373565 c -0.9862,0 -1.780145,-0.79395 -1.780145,-1.78015 v -7.37356 c 0,-0.9862 0.793945,-1.78014 1.780145,-1.78014 z"
       id="path4507"
       inkscape:export-filename="C:\Users\ender\text4501.png"
       inkscape:export-xdpi="299.98801"
       inkscape:export-ydpi="299.98801" />
    <g
       style="fill:#337ab7;stroke:none"
       class="shadow"
       id="g4531"
       transform="matrix(0.00315062,0,0,0.00315062,39.187774,190.28358)">
      <path
         inkscape:connector-curvature="0"
         d="m 2332,6518 c -7,-7 -12,-39 -12,-74 0,-116 69,-286 327,-807 79,-158 143,-289 143,-291 0,-2 20,-46 44,-97 76,-164 126,-315 126,-380 0,-28 -25,-88 -95,-226 -105,-209 -168,-327 -208,-390 -33,-52 -36,-113 -7,-160 41,-68 103,-50 214,62 96,95 188,231 231,339 18,45 33,39 54,-21 74,-211 188,-391 271,-428 38,-17 43,-17 75,-2 45,21 95,91 95,131 0,72 -49,196 -185,468 -115,230 -114,224 -69,326 13,29 48,90 77,135 82,125 107,179 107,235 0,38 -5,53 -24,71 -24,23 -25,23 -86,8 -34,-9 -82,-28 -106,-42 -50,-29 -117,-108 -135,-160 -7,-19 -18,-35 -25,-35 -7,0 -33,37 -60,83 -26,45 -111,185 -188,312 -78,126 -145,237 -151,247 -167,287 -264,473 -319,608 -37,91 -65,117 -94,88 z"
         id="path4513" />
      <path
         inkscape:connector-curvature="0"
         d="m 3044,5867 c -8,-22 -1,-31 51,-66 26,-17 100,-46 182,-71 196,-59 355,-115 432,-153 74,-36 64,-16 101,-207 27,-141 37,-197 55,-310 9,-52 23,-131 31,-175 20,-109 42,-253 54,-355 10,-81 17,-129 40,-285 6,-38 15,-106 20,-150 4,-44 16,-129 25,-190 9,-60 20,-141 25,-180 13,-102 58,-401 69,-465 5,-30 17,-102 26,-160 8,-58 27,-173 40,-256 28,-172 30,-208 13,-221 -7,-5 -44,-22 -83,-37 -38,-15 -79,-32 -90,-37 -60,-26 -311,-125 -450,-177 -315,-120 -440,-159 -690,-217 -212,-50 -240,-58 -282,-87 -60,-41 -83,-77 -83,-133 0,-43 2,-47 35,-61 45,-18 209,-19 295,0 242,53 460,132 1090,391 30,13 99,41 154,64 75,30 103,38 117,31 18,-10 21,-19 40,-145 25,-169 71,-255 135,-255 13,0 47,22 80,52 l 57,53 -7,215 c -6,199 -5,216 11,226 10,6 43,25 73,41 30,17 134,77 230,133 96,57 200,117 230,134 229,132 635,399 815,534 264,199 473,399 569,544 90,136 108,191 109,323 1,108 1,111 -37,190 -32,66 -57,98 -140,180 -242,241 -631,446 -1408,744 -222,85 -314,119 -633,233 -382,136 -412,147 -468,174 -72,34 -105,39 -128,18 -17,-15 -25,-16 -77,-4 -188,43 -311,71 -342,80 -73,20 -167,39 -222,46 -47,5 -59,3 -64,-9 z m 1092,-406 c 857,-298 1449,-594 1733,-866 130,-124 194,-223 226,-350 38,-151 -7,-313 -135,-485 -162,-217 -488,-469 -960,-742 -246,-142 -429,-238 -445,-232 -29,11 -84,128 -120,254 -29,102 -68,247 -75,280 -5,19 -22,96 -39,170 -17,74 -56,259 -86,410 -56,280 -63,317 -90,475 -9,50 -20,108 -25,130 -5,22 -12,60 -15,85 -3,25 -10,65 -15,90 -9,43 -35,190 -67,385 -8,50 -18,113 -23,140 -4,28 -15,93 -24,145 -9,52 -19,112 -22,133 -4,22 -3,37 3,37 6,0 86,-26 179,-59 z"
         id="path4515" />
      <path
         inkscape:connector-curvature="0"
         d="m 1798,5687 c -31,-29 -68,-147 -68,-217 0,-160 -90,-752 -140,-925 -5,-16 -16,-59 -25,-95 -81,-336 -211,-698 -416,-1160 -63,-143 -351,-711 -448,-885 -16,-27 -44,-79 -63,-115 -20,-36 -48,-87 -64,-115 -54,-97 -105,-190 -122,-224 -16,-32 -16,-33 7,-52 16,-13 39,-19 72,-19 h 48 l 80,113 c 44,61 125,184 179,272 89,144 134,221 231,395 35,62 225,445 265,532 68,151 149,345 191,458 25,69 51,136 57,150 13,31 111,330 127,388 6,23 16,42 21,42 18,0 27,-37 39,-160 6,-69 16,-163 22,-210 5,-47 14,-143 19,-215 10,-130 15,-182 45,-495 35,-372 74,-621 165,-1050 17,-80 35,-165 40,-190 17,-80 83,-337 116,-450 26,-87 103,-319 123,-369 11,-25 29,-71 41,-101 41,-101 131,-274 188,-360 70,-106 229,-267 295,-299 76,-37 79,-23 23,126 -85,226 -105,278 -271,688 -75,187 -171,463 -215,620 -12,44 -28,100 -36,125 -29,96 -76,287 -94,385 -5,28 -19,95 -30,150 -11,55 -27,153 -35,218 -9,64 -22,143 -30,175 -14,52 -29,162 -55,402 -5,47 -16,146 -25,220 -8,74 -20,207 -25,295 -5,88 -16,266 -25,395 -9,129 -20,314 -26,410 -5,96 -13,222 -19,280 -5,67 -5,156 1,245 30,420 32,601 6,633 -6,7 -35,12 -77,12 -56,0 -71,-4 -92,-23 z"
         id="path4517" />
      <path
         inkscape:connector-curvature="0"
         d="m 9543,5530 c -65,-13 -111,-39 -162,-90 -43,-43 -49,-55 -65,-131 -10,-46 -21,-112 -24,-146 -2,-35 -7,-63 -11,-63 -3,1 -37,41 -75,90 -123,161 -215,240 -277,240 -38,0 -85,-33 -121,-86 -26,-39 -27,-40 -12,-94 55,-201 104,-420 104,-466 0,-11 16,-35 35,-54 28,-28 44,-34 89,-38 44,-4 62,0 91,18 52,32 86,22 169,-50 79,-68 110,-78 194,-61 110,22 161,83 170,201 5,73 -19,214 -63,365 -10,33 -20,75 -22,93 l -5,33 48,-20 c 71,-27 250,-117 394,-197 227,-126 200,-118 405,-119 103,0 212,6 255,13 41,7 127,22 190,34 66,11 178,22 262,25 150,5 190,0 335,-43 415,-120 787,-204 907,-204 51,0 66,13 66,60 0,87 -185,198 -505,304 -121,40 -167,54 -290,85 -264,67 -294,71 -514,71 -190,0 -219,-3 -410,-36 -170,-30 -223,-35 -302,-32 -106,5 -77,-7 -329,135 -244,136 -408,187 -527,163 z"
         id="path4519" />
      <path
         inkscape:connector-curvature="0"
         d="m 7803,5510 c -18,-10 -45,-38 -60,-61 -40,-60 -37,-138 10,-279 20,-58 31,-107 26,-108 -16,-6 -142,90 -219,167 -42,42 -87,98 -100,126 -30,59 -57,75 -130,75 -94,0 -148,-47 -153,-136 -5,-81 -11,-82 -88,-9 -74,70 -93,76 -160,54 -125,-42 -149,-146 -73,-316 15,-36 24,-74 24,-108 0,-121 65,-184 189,-185 20,0 54,-12 81,-29 69,-43 137,-63 182,-56 60,11 152,76 194,140 20,30 41,55 46,55 6,0 46,-20 89,-45 176,-98 276,-110 398,-44 74,39 83,52 105,141 15,61 15,70 1,110 -23,62 -23,73 3,76 17,3 46,-18 118,-85 144,-134 250,-219 310,-247 101,-48 212,-28 249,44 28,54 14,112 -43,183 -21,26 -32,53 -37,90 -20,166 -49,260 -96,309 -32,34 -41,38 -86,38 -46,0 -54,-3 -86,-39 -20,-22 -43,-54 -52,-70 -8,-17 -18,-31 -20,-31 -22,0 -113,48 -230,120 -218,135 -318,166 -392,120 z"
         id="path4521" />
      <path
         inkscape:connector-curvature="0"
         d="m 6171,5478 c -24,-12 -69,-45 -101,-75 -95,-88 -129,-200 -95,-318 50,-171 169,-307 356,-402 73,-37 76,-38 189,-38 109,0 118,2 165,29 64,37 140,117 156,163 15,46 6,174 -16,228 -70,174 -221,310 -431,388 -54,20 -165,49 -177,47 -1,-1 -22,-11 -46,-22 z m 271,-240 c 60,-80 107,-300 76,-357 -27,-50 -41,-49 -115,11 -123,102 -183,180 -183,238 0,31 33,104 51,116 48,30 146,25 171,-8 z"
         id="path4523" />
      <path
         inkscape:connector-curvature="0"
         d="m 2182,5399 c -72,-41 -129,-100 -159,-166 -23,-49 -25,-65 -21,-143 4,-77 9,-98 41,-163 71,-144 223,-277 379,-332 146,-52 285,-21 388,86 62,65 73,99 68,208 -3,71 -10,98 -37,154 -52,108 -193,244 -311,299 -134,62 -211,88 -262,88 -18,0 -56,-14 -86,-31 z m 275,-207 c 33,-21 113,-239 113,-307 0,-36 -38,-105 -57,-105 -27,0 -178,127 -218,184 -47,66 -52,101 -25,165 18,40 29,53 54,60 39,11 117,13 133,3 z"
         id="path4525" />
      <path
         inkscape:connector-curvature="0"
         d="m 8948,4453 c -45,-48 -88,-125 -109,-195 -21,-67 -21,-68 -2,-100 46,-80 135,-80 224,0 127,114 116,235 -28,298 -30,13 -55,24 -56,24 -2,0 -15,-12 -29,-27 z"
         id="path4527" />
      <path
         inkscape:connector-curvature="0"
         d="m 10445,4293 c -136,-71 -178,-253 -80,-343 40,-38 122,-35 195,6 76,43 94,70 98,152 4,64 2,70 -30,112 -32,43 -106,90 -138,89 -8,0 -28,-7 -45,-16 z"
         id="path4529" />
    </g>
    <g
       aria-label="P"
       style="font-style:normal;font-weight:normal;font-size:22.27488518px;line-height:13.92180347px;font-family:sans-serif;letter-spacing:0px;word-spacing:0px;fill:#000000;fill-opacity:1;stroke:none;stroke-width:0.55687213px;stroke-linecap:butt;stroke-linejoin:miter;stroke-opacity:1"
       id="text4501"
       inkscape:export-filename="C:\Users\ender\text4501.png"
       inkscape:export-xdpi="299.98801"
       inkscape:export-ydpi="299.98801">
      <path
         d="m 31.437523,259.36556 0.326292,0.56557 q -3.186787,2.25142 -5.90589,5.69924 -2.719102,3.44782 -3.926383,6.75425 l -0.478562,0.31542 q -0.619956,0.40242 -1.065888,0.80485 -0.07614,-0.39155 -0.42418,-1.26166 l -0.250158,-0.61996 q -0.81573,-2.01213 -1.381304,-2.80611 -0.554696,-0.80485 -1.207281,-0.87011 0.880989,-0.80486 1.533574,-0.80486 0.902742,0 1.979506,2.42544 l 0.391551,0.87011 q 1.925124,-3.44782 4.644226,-6.35182 2.729979,-2.904 5.764497,-4.72036 z"
         style="font-style:normal;font-variant:normal;font-weight:normal;font-stretch:normal;font-family:'Wingdings 2';-inkscape-font-specification:'Wingdings 2, ';stroke-width:0.55687213px"
         id="path4605" />
    </g>
  </g>
</svg>
